<mxfile host="65bd71144e">
    <diagram id="6aBOskwQsQeoWCjWC5uv" name="Page-1">
        <mxGraphModel dx="283" dy="210" grid="1" gridSize="14" guides="1" tooltips="1" connect="1" arrows="1" fold="1" page="1" pageScale="1" pageWidth="1654" pageHeight="2336" math="0" shadow="0">
            <root>
                <mxCell id="0"/>
                <mxCell id="1" parent="0"/>
                <mxCell id="17" value="" style="rounded=0;whiteSpace=wrap;html=1;fontSize=14;strokeColor=default;strokeWidth=1;" vertex="1" parent="1">
                    <mxGeometry x="450" y="240" width="120" height="145" as="geometry"/>
                </mxCell>
                <mxCell id="18" value="&lt;span style=&quot;font-size: 14px;&quot;&gt;&lt;b&gt;Kunde&lt;/b&gt;&lt;/span&gt;" style="text;strokeColor=none;align=center;fillColor=none;html=1;verticalAlign=middle;whiteSpace=wrap;rounded=0;strokeWidth=1;" vertex="1" parent="1">
                    <mxGeometry x="450" y="240" width="120" height="25" as="geometry"/>
                </mxCell>
                <mxCell id="19" style="edgeStyle=none;html=1;exitX=0;exitY=0;exitDx=0;exitDy=0;entryX=1;entryY=0;entryDx=0;entryDy=0;endArrow=none;endFill=0;" edge="1" parent="1">
                    <mxGeometry relative="1" as="geometry">
                        <mxPoint x="450" y="265" as="sourcePoint"/>
                        <mxPoint x="570" y="265" as="targetPoint"/>
                    </mxGeometry>
                </mxCell>
                <mxCell id="20" value="&lt;span style=&quot;font-size: 14px;&quot;&gt;TelefonNr&lt;/span&gt;" style="text;strokeColor=none;align=center;fillColor=none;html=1;verticalAlign=middle;whiteSpace=wrap;rounded=0;strokeWidth=1;fontStyle=0" vertex="1" parent="1">
                    <mxGeometry x="450" y="285" width="120" height="20" as="geometry"/>
                </mxCell>
                <mxCell id="21" value="&lt;span style=&quot;font-size: 14px;&quot;&gt;Navn&lt;/span&gt;" style="text;strokeColor=none;align=center;fillColor=none;html=1;verticalAlign=middle;whiteSpace=wrap;rounded=0;strokeWidth=1;fontStyle=0" vertex="1" parent="1">
                    <mxGeometry x="450" y="305" width="120" height="20" as="geometry"/>
                </mxCell>
                <mxCell id="22" value="&lt;span style=&quot;font-size: 14px;&quot;&gt;Adresse&lt;/span&gt;" style="text;strokeColor=none;align=center;fillColor=none;html=1;verticalAlign=middle;whiteSpace=wrap;rounded=0;strokeWidth=1;fontStyle=0" vertex="1" parent="1">
                    <mxGeometry x="450" y="325" width="120" height="20" as="geometry"/>
                </mxCell>
                <mxCell id="23" value="&lt;span style=&quot;font-size: 14px;&quot;&gt;Gruppe&lt;/span&gt;" style="text;strokeColor=none;align=center;fillColor=none;html=1;verticalAlign=middle;whiteSpace=wrap;rounded=0;strokeWidth=1;fontStyle=0" vertex="1" parent="1">
                    <mxGeometry x="450" y="345" width="120" height="20" as="geometry"/>
                </mxCell>
                <mxCell id="24" value="&lt;font style=&quot;font-size: 14px;&quot;&gt;Attribute5&lt;/font&gt;" style="text;strokeColor=none;align=center;fillColor=none;html=1;verticalAlign=middle;whiteSpace=wrap;rounded=0;strokeWidth=1;fontStyle=0" vertex="1" parent="1">
                    <mxGeometry x="450" y="365" width="120" height="20" as="geometry"/>
                </mxCell>
                <mxCell id="25" value="&lt;span style=&quot;font-size: 14px;&quot;&gt;&lt;u&gt;KundeNr&lt;/u&gt;&lt;/span&gt;" style="text;strokeColor=none;align=center;fillColor=none;html=1;verticalAlign=middle;whiteSpace=wrap;rounded=0;strokeWidth=1;labelPosition=center;verticalLabelPosition=middle;" vertex="1" parent="1">
                    <mxGeometry x="450" y="265" width="120" height="20" as="geometry"/>
                </mxCell>
                <mxCell id="27" value="" style="rounded=0;whiteSpace=wrap;html=1;fontSize=14;strokeColor=default;strokeWidth=1;" vertex="1" parent="1">
                    <mxGeometry x="120" y="222.5" width="120" height="145" as="geometry"/>
                </mxCell>
                <mxCell id="28" value="&lt;span style=&quot;font-size: 14px;&quot;&gt;&lt;b&gt;Teatersal&lt;/b&gt;&lt;/span&gt;" style="text;strokeColor=none;align=center;fillColor=none;html=1;verticalAlign=middle;whiteSpace=wrap;rounded=0;strokeWidth=1;" vertex="1" parent="1">
                    <mxGeometry x="120" y="222.5" width="120" height="25" as="geometry"/>
                </mxCell>
                <mxCell id="29" style="edgeStyle=none;html=1;exitX=0;exitY=0;exitDx=0;exitDy=0;entryX=1;entryY=0;entryDx=0;entryDy=0;endArrow=none;endFill=0;" edge="1" parent="1">
                    <mxGeometry relative="1" as="geometry">
                        <mxPoint x="120" y="247.5" as="sourcePoint"/>
                        <mxPoint x="240" y="247.5" as="targetPoint"/>
                    </mxGeometry>
                </mxCell>
                <mxCell id="30" value="&lt;span style=&quot;font-size: 14px;&quot;&gt;Navn&lt;/span&gt;" style="text;strokeColor=none;align=center;fillColor=none;html=1;verticalAlign=middle;whiteSpace=wrap;rounded=0;strokeWidth=1;fontStyle=0" vertex="1" parent="1">
                    <mxGeometry x="120" y="267.5" width="120" height="20" as="geometry"/>
                </mxCell>
                <mxCell id="31" value="&lt;span style=&quot;font-size: 14px;&quot;&gt;Kapasitet&lt;/span&gt;" style="text;strokeColor=none;align=center;fillColor=none;html=1;verticalAlign=middle;whiteSpace=wrap;rounded=0;strokeWidth=1;fontStyle=0" vertex="1" parent="1">
                    <mxGeometry x="120" y="287.5" width="120" height="20" as="geometry"/>
                </mxCell>
                <mxCell id="32" value="&lt;font style=&quot;font-size: 14px;&quot;&gt;Attribute3&lt;/font&gt;" style="text;strokeColor=none;align=center;fillColor=none;html=1;verticalAlign=middle;whiteSpace=wrap;rounded=0;strokeWidth=1;fontStyle=0" vertex="1" parent="1">
                    <mxGeometry x="120" y="307.5" width="120" height="20" as="geometry"/>
                </mxCell>
                <mxCell id="33" value="&lt;font style=&quot;font-size: 14px;&quot;&gt;Attribute4&lt;/font&gt;" style="text;strokeColor=none;align=center;fillColor=none;html=1;verticalAlign=middle;whiteSpace=wrap;rounded=0;strokeWidth=1;fontStyle=0" vertex="1" parent="1">
                    <mxGeometry x="120" y="327.5" width="120" height="20" as="geometry"/>
                </mxCell>
                <mxCell id="34" value="&lt;font style=&quot;font-size: 14px;&quot;&gt;Attribute5&lt;/font&gt;" style="text;strokeColor=none;align=center;fillColor=none;html=1;verticalAlign=middle;whiteSpace=wrap;rounded=0;strokeWidth=1;fontStyle=0" vertex="1" parent="1">
                    <mxGeometry x="120" y="347.5" width="120" height="20" as="geometry"/>
                </mxCell>
                <mxCell id="35" value="&lt;span style=&quot;font-size: 14px;&quot;&gt;&lt;u&gt;SalID&lt;/u&gt;&lt;/span&gt;" style="text;strokeColor=none;align=center;fillColor=none;html=1;verticalAlign=middle;whiteSpace=wrap;rounded=0;strokeWidth=1;labelPosition=center;verticalLabelPosition=middle;" vertex="1" parent="1">
                    <mxGeometry x="120" y="247.5" width="120" height="20" as="geometry"/>
                </mxCell>
                <mxCell id="45" value="" style="rounded=0;whiteSpace=wrap;html=1;fontSize=14;strokeColor=default;strokeWidth=1;" vertex="1" parent="1">
                    <mxGeometry x="290" y="430" width="120" height="115" as="geometry"/>
                </mxCell>
                <mxCell id="46" value="" style="rounded=0;whiteSpace=wrap;html=1;fontSize=14;strokeColor=default;strokeWidth=1;" vertex="1" parent="1">
                    <mxGeometry x="295" y="435" width="110" height="105" as="geometry"/>
                </mxCell>
                <mxCell id="47" value="&lt;span style=&quot;font-size: 14px;&quot;&gt;&lt;b&gt;Forestilling&lt;/b&gt;&lt;/span&gt;" style="text;strokeColor=none;align=center;fillColor=none;html=1;verticalAlign=middle;whiteSpace=wrap;rounded=0;strokeWidth=1;" vertex="1" parent="1">
                    <mxGeometry x="295" y="435" width="110" height="25" as="geometry"/>
                </mxCell>
                <mxCell id="48" value="&lt;span style=&quot;border-color: var(--border-color); font-size: 14px;&quot;&gt;Attribute1&lt;/span&gt;" style="text;strokeColor=none;align=center;fillColor=none;html=1;verticalAlign=middle;whiteSpace=wrap;rounded=0;strokeWidth=1;" vertex="1" parent="1">
                    <mxGeometry x="295" y="480" width="110" height="20" as="geometry"/>
                </mxCell>
                <mxCell id="49" value="&lt;span style=&quot;border-color: var(--border-color); font-size: 14px;&quot;&gt;Attribute2&lt;/span&gt;" style="text;strokeColor=none;align=center;fillColor=none;html=1;verticalAlign=middle;whiteSpace=wrap;rounded=0;strokeWidth=1;" vertex="1" parent="1">
                    <mxGeometry x="295" y="500" width="110" height="20" as="geometry"/>
                </mxCell>
                <mxCell id="50" style="edgeStyle=none;html=1;exitX=0;exitY=0;exitDx=0;exitDy=0;entryX=1;entryY=0;entryDx=0;entryDy=0;endArrow=none;endFill=0;" edge="1" parent="1">
                    <mxGeometry relative="1" as="geometry">
                        <mxPoint x="295" y="460" as="sourcePoint"/>
                        <mxPoint x="405" y="460" as="targetPoint"/>
                    </mxGeometry>
                </mxCell>
                <mxCell id="51" value="&lt;span style=&quot;border-color: var(--border-color); font-size: 14px;&quot;&gt;Attribute3&lt;/span&gt;" style="text;strokeColor=none;align=center;fillColor=none;html=1;verticalAlign=middle;whiteSpace=wrap;rounded=0;strokeWidth=1;" vertex="1" parent="1">
                    <mxGeometry x="295" y="520" width="110" height="20" as="geometry"/>
                </mxCell>
                <mxCell id="52" value="&lt;span style=&quot;font-size: 14px;&quot;&gt;Tidspunkt&lt;/span&gt;" style="text;strokeColor=none;align=center;fillColor=none;html=1;verticalAlign=middle;whiteSpace=wrap;rounded=0;strokeWidth=1;fontStyle=4" vertex="1" parent="1">
                    <mxGeometry x="295" y="460" width="110" height="20" as="geometry"/>
                </mxCell>
                <mxCell id="53" value="" style="rounded=0;whiteSpace=wrap;html=1;fontSize=14;strokeColor=default;strokeWidth=1;" vertex="1" parent="1">
                    <mxGeometry x="840" y="251" width="120" height="145" as="geometry"/>
                </mxCell>
                <mxCell id="54" value="&lt;span style=&quot;font-size: 14px;&quot;&gt;&lt;b&gt;Teaterstykke&lt;/b&gt;&lt;/span&gt;" style="text;strokeColor=none;align=center;fillColor=none;html=1;verticalAlign=middle;whiteSpace=wrap;rounded=0;strokeWidth=1;" vertex="1" parent="1">
                    <mxGeometry x="840" y="251" width="120" height="25" as="geometry"/>
                </mxCell>
                <mxCell id="55" style="edgeStyle=none;html=1;exitX=0;exitY=0;exitDx=0;exitDy=0;entryX=1;entryY=0;entryDx=0;entryDy=0;endArrow=none;endFill=0;" edge="1" parent="1">
                    <mxGeometry relative="1" as="geometry">
                        <mxPoint x="840" y="276" as="sourcePoint"/>
                        <mxPoint x="960" y="276" as="targetPoint"/>
                    </mxGeometry>
                </mxCell>
                <mxCell id="56" value="&lt;span style=&quot;font-size: 14px;&quot;&gt;Navn&lt;/span&gt;" style="text;strokeColor=none;align=center;fillColor=none;html=1;verticalAlign=middle;whiteSpace=wrap;rounded=0;strokeWidth=1;fontStyle=0" vertex="1" parent="1">
                    <mxGeometry x="840" y="296" width="120" height="20" as="geometry"/>
                </mxCell>
                <mxCell id="57" value="&lt;font style=&quot;font-size: 14px;&quot;&gt;Attribute2&lt;/font&gt;" style="text;strokeColor=none;align=center;fillColor=none;html=1;verticalAlign=middle;whiteSpace=wrap;rounded=0;strokeWidth=1;fontStyle=0" vertex="1" parent="1">
                    <mxGeometry x="840" y="316" width="120" height="20" as="geometry"/>
                </mxCell>
                <mxCell id="58" value="&lt;font style=&quot;font-size: 14px;&quot;&gt;Attribute3&lt;/font&gt;" style="text;strokeColor=none;align=center;fillColor=none;html=1;verticalAlign=middle;whiteSpace=wrap;rounded=0;strokeWidth=1;fontStyle=0" vertex="1" parent="1">
                    <mxGeometry x="840" y="336" width="120" height="20" as="geometry"/>
                </mxCell>
                <mxCell id="59" value="&lt;font style=&quot;font-size: 14px;&quot;&gt;Attribute4&lt;/font&gt;" style="text;strokeColor=none;align=center;fillColor=none;html=1;verticalAlign=middle;whiteSpace=wrap;rounded=0;strokeWidth=1;fontStyle=0" vertex="1" parent="1">
                    <mxGeometry x="840" y="356" width="120" height="20" as="geometry"/>
                </mxCell>
                <mxCell id="60" value="&lt;font style=&quot;font-size: 14px;&quot;&gt;Attribute5&lt;/font&gt;" style="text;strokeColor=none;align=center;fillColor=none;html=1;verticalAlign=middle;whiteSpace=wrap;rounded=0;strokeWidth=1;fontStyle=0" vertex="1" parent="1">
                    <mxGeometry x="840" y="376" width="120" height="20" as="geometry"/>
                </mxCell>
                <mxCell id="61" value="&lt;span style=&quot;font-size: 14px;&quot;&gt;StykkeID&lt;/span&gt;" style="text;strokeColor=none;align=center;fillColor=none;html=1;verticalAlign=middle;whiteSpace=wrap;rounded=0;strokeWidth=1;labelPosition=center;verticalLabelPosition=middle;fontStyle=4" vertex="1" parent="1">
                    <mxGeometry x="840" y="276" width="120" height="20" as="geometry"/>
                </mxCell>
                <mxCell id="62" value="" style="rounded=0;whiteSpace=wrap;html=1;fontSize=14;strokeColor=default;strokeWidth=1;" vertex="1" parent="1">
                    <mxGeometry x="320" y="600" width="120" height="145" as="geometry"/>
                </mxCell>
                <mxCell id="63" value="&lt;span style=&quot;font-size: 14px;&quot;&gt;&lt;b&gt;Billett&lt;/b&gt;&lt;/span&gt;" style="text;strokeColor=none;align=center;fillColor=none;html=1;verticalAlign=middle;whiteSpace=wrap;rounded=0;strokeWidth=1;" vertex="1" parent="1">
                    <mxGeometry x="320" y="600" width="120" height="25" as="geometry"/>
                </mxCell>
                <mxCell id="64" style="edgeStyle=none;html=1;exitX=0;exitY=0;exitDx=0;exitDy=0;entryX=1;entryY=0;entryDx=0;entryDy=0;endArrow=none;endFill=0;" edge="1" parent="1">
                    <mxGeometry relative="1" as="geometry">
                        <mxPoint x="320" y="625" as="sourcePoint"/>
                        <mxPoint x="440" y="625" as="targetPoint"/>
                    </mxGeometry>
                </mxCell>
                <mxCell id="65" value="&lt;font style=&quot;font-size: 14px;&quot;&gt;Attribute1&lt;/font&gt;" style="text;strokeColor=none;align=center;fillColor=none;html=1;verticalAlign=middle;whiteSpace=wrap;rounded=0;strokeWidth=1;fontStyle=0" vertex="1" parent="1">
                    <mxGeometry x="320" y="645" width="120" height="20" as="geometry"/>
                </mxCell>
                <mxCell id="66" value="&lt;font style=&quot;font-size: 14px;&quot;&gt;Attribute2&lt;/font&gt;" style="text;strokeColor=none;align=center;fillColor=none;html=1;verticalAlign=middle;whiteSpace=wrap;rounded=0;strokeWidth=1;fontStyle=0" vertex="1" parent="1">
                    <mxGeometry x="320" y="665" width="120" height="20" as="geometry"/>
                </mxCell>
                <mxCell id="67" value="&lt;font style=&quot;font-size: 14px;&quot;&gt;Attribute3&lt;/font&gt;" style="text;strokeColor=none;align=center;fillColor=none;html=1;verticalAlign=middle;whiteSpace=wrap;rounded=0;strokeWidth=1;fontStyle=0" vertex="1" parent="1">
                    <mxGeometry x="320" y="685" width="120" height="20" as="geometry"/>
                </mxCell>
                <mxCell id="68" value="&lt;font style=&quot;font-size: 14px;&quot;&gt;Attribute4&lt;/font&gt;" style="text;strokeColor=none;align=center;fillColor=none;html=1;verticalAlign=middle;whiteSpace=wrap;rounded=0;strokeWidth=1;fontStyle=0" vertex="1" parent="1">
                    <mxGeometry x="320" y="705" width="120" height="20" as="geometry"/>
                </mxCell>
                <mxCell id="69" value="&lt;font style=&quot;font-size: 14px;&quot;&gt;Attribute5&lt;/font&gt;" style="text;strokeColor=none;align=center;fillColor=none;html=1;verticalAlign=middle;whiteSpace=wrap;rounded=0;strokeWidth=1;fontStyle=0" vertex="1" parent="1">
                    <mxGeometry x="320" y="725" width="120" height="20" as="geometry"/>
                </mxCell>
                <mxCell id="70" value="&lt;span style=&quot;border-bottom: 1px solid black&quot;&gt;&lt;font style=&quot;font-size: 14px;&quot;&gt;Key&lt;/font&gt;&lt;/span&gt;" style="text;strokeColor=none;align=center;fillColor=none;html=1;verticalAlign=middle;whiteSpace=wrap;rounded=0;strokeWidth=1;labelPosition=center;verticalLabelPosition=middle;" vertex="1" parent="1">
                    <mxGeometry x="320" y="625" width="120" height="20" as="geometry"/>
                </mxCell>
                <mxCell id="84" value="" style="rounded=0;whiteSpace=wrap;html=1;fontSize=14;strokeColor=default;strokeWidth=1;" vertex="1" parent="1">
                    <mxGeometry x="112" y="597.5" width="120" height="115" as="geometry"/>
                </mxCell>
                <mxCell id="85" value="" style="rounded=0;whiteSpace=wrap;html=1;fontSize=14;strokeColor=default;strokeWidth=1;" vertex="1" parent="1">
                    <mxGeometry x="117" y="602.5" width="110" height="105" as="geometry"/>
                </mxCell>
                <mxCell id="86" value="&lt;span style=&quot;font-size: 14px;&quot;&gt;&lt;b&gt;Stol&lt;/b&gt;&lt;/span&gt;" style="text;strokeColor=none;align=center;fillColor=none;html=1;verticalAlign=middle;whiteSpace=wrap;rounded=0;strokeWidth=1;" vertex="1" parent="1">
                    <mxGeometry x="117" y="602.5" width="110" height="25" as="geometry"/>
                </mxCell>
                <mxCell id="87" value="&lt;span style=&quot;font-size: 14px;&quot;&gt;RadNr&lt;/span&gt;" style="text;strokeColor=none;align=center;fillColor=none;html=1;verticalAlign=middle;whiteSpace=wrap;rounded=0;strokeWidth=1;" vertex="1" parent="1">
                    <mxGeometry x="117" y="647.5" width="110" height="20" as="geometry"/>
                </mxCell>
                <mxCell id="88" value="&lt;span style=&quot;font-size: 14px;&quot;&gt;Område&lt;/span&gt;" style="text;strokeColor=none;align=center;fillColor=none;html=1;verticalAlign=middle;whiteSpace=wrap;rounded=0;strokeWidth=1;" vertex="1" parent="1">
                    <mxGeometry x="117" y="667.5" width="110" height="20" as="geometry"/>
                </mxCell>
                <mxCell id="89" style="edgeStyle=none;html=1;exitX=0;exitY=0;exitDx=0;exitDy=0;entryX=1;entryY=0;entryDx=0;entryDy=0;endArrow=none;endFill=0;" edge="1" parent="1">
                    <mxGeometry relative="1" as="geometry">
                        <mxPoint x="117" y="627.5" as="sourcePoint"/>
                        <mxPoint x="227" y="627.5" as="targetPoint"/>
                    </mxGeometry>
                </mxCell>
                <mxCell id="90" value="&lt;span style=&quot;border-color: var(--border-color); font-size: 14px;&quot;&gt;Attribute3&lt;/span&gt;" style="text;strokeColor=none;align=center;fillColor=none;html=1;verticalAlign=middle;whiteSpace=wrap;rounded=0;strokeWidth=1;" vertex="1" parent="1">
                    <mxGeometry x="117" y="687.5" width="110" height="20" as="geometry"/>
                </mxCell>
                <mxCell id="91" value="&lt;span style=&quot;font-size: 14px;&quot;&gt;StolNr&lt;/span&gt;" style="text;strokeColor=none;align=center;fillColor=none;html=1;verticalAlign=middle;whiteSpace=wrap;rounded=0;strokeWidth=1;" vertex="1" parent="1">
                    <mxGeometry x="117" y="627.5" width="110" height="16.5" as="geometry"/>
                </mxCell>
                <mxCell id="129" value="" style="rounded=0;whiteSpace=wrap;html=1;fontSize=14;strokeColor=default;strokeWidth=1;glass=0;labelBorderColor=none;fillColor=none;" vertex="1" parent="1">
                    <mxGeometry x="840" y="98" width="120" height="75" as="geometry"/>
                </mxCell>
                <mxCell id="130" value="" style="rounded=0;whiteSpace=wrap;html=1;fontSize=14;strokeColor=default;strokeWidth=1;glass=0;labelBorderColor=none;fillColor=none;" vertex="1" parent="1">
                    <mxGeometry x="845" y="103" width="110" height="65" as="geometry"/>
                </mxCell>
                <mxCell id="131" value="&lt;b&gt;&lt;font style=&quot;font-size: 14px;&quot;&gt;Akt&lt;/font&gt;&lt;/b&gt;" style="text;strokeColor=none;align=center;fillColor=none;html=1;verticalAlign=middle;whiteSpace=wrap;rounded=0;strokeWidth=1;glass=0;labelBorderColor=none;" vertex="1" parent="1">
                    <mxGeometry x="845" y="103" width="110" height="25" as="geometry"/>
                </mxCell>
                <mxCell id="132" value="&lt;span style=&quot;border-bottom: 1px dashed black&quot;&gt;&lt;font style=&quot;font-size: 14px;&quot;&gt;AktNavn&lt;/font&gt;&lt;/span&gt;" style="text;strokeColor=none;align=center;fillColor=none;html=1;verticalAlign=middle;whiteSpace=wrap;rounded=0;strokeWidth=1;glass=0;labelBorderColor=none;" vertex="1" parent="1">
                    <mxGeometry x="845" y="128" width="110" height="20" as="geometry"/>
                </mxCell>
                <mxCell id="133" value="&lt;span style=&quot;border-color: var(--border-color); font-size: 14px;&quot;&gt;Info&lt;/span&gt;" style="text;strokeColor=none;align=center;fillColor=none;html=1;verticalAlign=middle;whiteSpace=wrap;rounded=0;strokeWidth=1;glass=0;labelBorderColor=none;" vertex="1" parent="1">
                    <mxGeometry x="845" y="148" width="110" height="20" as="geometry"/>
                </mxCell>
                <mxCell id="134" style="edgeStyle=none;html=1;exitX=0;exitY=0;exitDx=0;exitDy=0;entryX=1;entryY=0;entryDx=0;entryDy=0;endArrow=none;endFill=0;" edge="1" parent="1" source="132" target="132">
                    <mxGeometry relative="1" as="geometry"/>
                </mxCell>
                <mxCell id="135" value="" style="rhombus;whiteSpace=wrap;html=1;fontSize=14;strokeColor=default;glass=0;labelBorderColor=none;strokeWidth=2;fillColor=none;" vertex="1" parent="1">
                    <mxGeometry x="500.0000000000001" y="924" width="40" height="40" as="geometry"/>
                </mxCell>
                <mxCell id="136" value="&lt;b&gt;HarForestilling&lt;/b&gt;" style="text;strokeColor=none;align=center;fillColor=none;html=1;verticalAlign=middle;whiteSpace=wrap;rounded=0;fontSize=14;glass=0;labelBorderColor=none;strokeWidth=2;" vertex="1" parent="1">
                    <mxGeometry x="490" y="964" width="60" height="20" as="geometry"/>
                </mxCell>
                <mxCell id="137" value="" style="rhombus;whiteSpace=wrap;html=1;fontSize=14;strokeColor=default;glass=0;labelBorderColor=none;strokeWidth=2;fillColor=none;" vertex="1" parent="1">
                    <mxGeometry x="626.0000000000001" y="924" width="40" height="40" as="geometry"/>
                </mxCell>
                <mxCell id="138" value="&lt;b&gt;SpillerRolle&lt;/b&gt;" style="text;strokeColor=none;align=center;fillColor=none;html=1;verticalAlign=middle;whiteSpace=wrap;rounded=0;fontSize=14;glass=0;labelBorderColor=none;strokeWidth=2;" vertex="1" parent="1">
                    <mxGeometry x="616" y="964" width="60" height="20" as="geometry"/>
                </mxCell>
                <mxCell id="139" value="" style="rhombus;whiteSpace=wrap;html=1;fontSize=14;strokeColor=default;glass=0;labelBorderColor=none;strokeWidth=2;fillColor=none;" vertex="1" parent="1">
                    <mxGeometry x="752.0000000000001" y="900" width="40" height="40" as="geometry"/>
                </mxCell>
                <mxCell id="140" value="&lt;b&gt;KnyttetTilBilett&lt;/b&gt;" style="text;strokeColor=none;align=center;fillColor=none;html=1;verticalAlign=middle;whiteSpace=wrap;rounded=0;fontSize=14;glass=0;labelBorderColor=none;strokeWidth=2;" vertex="1" parent="1">
                    <mxGeometry x="742" y="940" width="60" height="20" as="geometry"/>
                </mxCell>
                <mxCell id="141" value="" style="rhombus;whiteSpace=wrap;html=1;fontSize=14;strokeColor=default;glass=0;labelBorderColor=none;strokeWidth=2;fillColor=none;" vertex="1" parent="1">
                    <mxGeometry x="626.0000000000001" y="840" width="40" height="40" as="geometry"/>
                </mxCell>
                <mxCell id="142" value="&lt;b&gt;JobberIForestilling&lt;/b&gt;" style="text;strokeColor=none;align=center;fillColor=none;html=1;verticalAlign=middle;whiteSpace=wrap;rounded=0;fontSize=14;glass=0;labelBorderColor=none;strokeWidth=2;" vertex="1" parent="1">
                    <mxGeometry x="616" y="880" width="60" height="20" as="geometry"/>
                </mxCell>
                <mxCell id="143" value="" style="rounded=0;whiteSpace=wrap;html=1;fontSize=14;strokeColor=default;strokeWidth=1;" vertex="1" parent="1">
                    <mxGeometry x="840" y="457.5" width="120" height="144.5" as="geometry"/>
                </mxCell>
                <mxCell id="144" value="&lt;span style=&quot;font-size: 14px;&quot;&gt;&lt;b&gt;Ansatt&lt;/b&gt;&lt;/span&gt;" style="text;strokeColor=none;align=center;fillColor=none;html=1;verticalAlign=middle;whiteSpace=wrap;rounded=0;strokeWidth=1;" vertex="1" parent="1">
                    <mxGeometry x="840" y="457.5" width="120" height="25" as="geometry"/>
                </mxCell>
                <mxCell id="145" style="edgeStyle=none;html=1;exitX=0;exitY=0;exitDx=0;exitDy=0;entryX=1;entryY=0;entryDx=0;entryDy=0;endArrow=none;endFill=0;" edge="1" parent="1">
                    <mxGeometry relative="1" as="geometry">
                        <mxPoint x="840" y="482.5" as="sourcePoint"/>
                        <mxPoint x="960" y="482.5" as="targetPoint"/>
                    </mxGeometry>
                </mxCell>
                <mxCell id="146" value="&lt;span style=&quot;font-size: 14px;&quot;&gt;Navn&lt;/span&gt;" style="text;strokeColor=none;align=center;fillColor=none;html=1;verticalAlign=middle;whiteSpace=wrap;rounded=0;strokeWidth=1;fontStyle=0" vertex="1" parent="1">
                    <mxGeometry x="840" y="502.5" width="120" height="20" as="geometry"/>
                </mxCell>
                <mxCell id="147" value="&lt;span style=&quot;font-size: 14px;&quot;&gt;TelefonNr&lt;/span&gt;" style="text;strokeColor=none;align=center;fillColor=none;html=1;verticalAlign=middle;whiteSpace=wrap;rounded=0;strokeWidth=1;fontStyle=0" vertex="1" parent="1">
                    <mxGeometry x="840" y="522.5" width="120" height="20" as="geometry"/>
                </mxCell>
                <mxCell id="148" value="&lt;span style=&quot;font-size: 14px;&quot;&gt;E-post&lt;/span&gt;" style="text;strokeColor=none;align=center;fillColor=none;html=1;verticalAlign=middle;whiteSpace=wrap;rounded=0;strokeWidth=1;fontStyle=0" vertex="1" parent="1">
                    <mxGeometry x="840" y="542.5" width="120" height="20" as="geometry"/>
                </mxCell>
                <mxCell id="151" value="&lt;span style=&quot;font-size: 14px;&quot;&gt;&lt;u&gt;AnsattID&lt;/u&gt;&lt;/span&gt;" style="text;strokeColor=none;align=center;fillColor=none;html=1;verticalAlign=middle;whiteSpace=wrap;rounded=0;strokeWidth=1;labelPosition=center;verticalLabelPosition=middle;" vertex="1" parent="1">
                    <mxGeometry x="840" y="482.5" width="120" height="20" as="geometry"/>
                </mxCell>
                <mxCell id="153" value="&lt;font color=&quot;#fefbfb&quot;&gt;D&lt;/font&gt;" style="ellipse;whiteSpace=wrap;html=1;aspect=fixed;fontColor=#000000;" vertex="1" parent="1">
                    <mxGeometry x="890.5" y="648.75" width="20" height="20" as="geometry"/>
                </mxCell>
                <mxCell id="154" value="" style="endArrow=none;html=1;strokeColor=default;endSize=6;targetPerimeterSpacing=0;endFill=0;exitX=1;exitY=1;exitDx=0;exitDy=0;entryX=0.5;entryY=0;entryDx=0;entryDy=0;fontColor=#000000;strokeWidth=1;" edge="1" source="153" target="157" parent="1">
                    <mxGeometry relative="1" as="geometry">
                        <mxPoint x="930.5" y="688.75" as="sourcePoint"/>
                        <mxPoint x="1030.5" y="738.75" as="targetPoint"/>
                    </mxGeometry>
                </mxCell>
                <mxCell id="155" value="" style="shape=requiredInterface;html=1;verticalLabelPosition=bottom;sketch=0;rotation=45;fontColor=#000000;" vertex="1" parent="154">
                    <mxGeometry width="10" height="10" relative="1" as="geometry">
                        <mxPoint x="-7" y="-7" as="offset"/>
                    </mxGeometry>
                </mxCell>
                <mxCell id="156" value="" style="rounded=0;whiteSpace=wrap;html=1;fontSize=14;strokeColor=default;strokeWidth=1;movable=1;resizable=1;rotatable=1;deletable=1;editable=1;connectable=1;fontColor=#000000;" vertex="1" parent="1">
                    <mxGeometry x="910.5" y="738.75" width="120" height="40" as="geometry"/>
                </mxCell>
                <mxCell id="157" value="&lt;span style=&quot;font-size: 14px;&quot;&gt;&lt;b&gt;&lt;font color=&quot;#f8f2f2&quot;&gt;Skuespiller&lt;/font&gt;&lt;/b&gt;&lt;/span&gt;" style="text;strokeColor=none;align=center;fillColor=none;html=1;verticalAlign=middle;whiteSpace=wrap;rounded=0;strokeWidth=1;movable=1;resizable=1;rotatable=1;deletable=1;editable=1;connectable=1;fontColor=#000000;" vertex="1" parent="1">
                    <mxGeometry x="910.5" y="738.75" width="120" height="40" as="geometry"/>
                </mxCell>
                <mxCell id="158" value="" style="rounded=0;whiteSpace=wrap;html=1;fontSize=14;strokeColor=default;strokeWidth=1;movable=1;resizable=1;rotatable=1;deletable=1;editable=1;connectable=1;fontColor=#000000;" vertex="1" parent="1">
                    <mxGeometry x="770.5" y="738.75" width="120" height="72.5" as="geometry"/>
                </mxCell>
                <mxCell id="159" value="&lt;span style=&quot;font-size: 14px;&quot;&gt;&lt;b&gt;&lt;font color=&quot;#ffffff&quot;&gt;Annet&lt;/font&gt;&lt;/b&gt;&lt;/span&gt;" style="text;strokeColor=none;align=center;fillColor=none;html=1;verticalAlign=middle;whiteSpace=wrap;rounded=0;strokeWidth=1;movable=1;resizable=1;rotatable=1;deletable=1;editable=1;connectable=1;fontColor=#000000;" vertex="1" parent="1">
                    <mxGeometry x="770.5" y="738.75" width="120" height="30.5" as="geometry"/>
                </mxCell>
                <mxCell id="160" value="" style="endArrow=none;html=1;strokeColor=default;endSize=6;targetPerimeterSpacing=0;endFill=0;exitX=0;exitY=1;exitDx=0;exitDy=0;entryX=0.5;entryY=0;entryDx=0;entryDy=0;fontColor=#000000;strokeWidth=1;" edge="1" source="153" target="159" parent="1">
                    <mxGeometry relative="1" as="geometry">
                        <mxPoint x="853.4300000000003" y="653.7510678118656" as="sourcePoint"/>
                        <mxPoint x="720.5010678118658" y="726.6800000000001" as="targetPoint"/>
                    </mxGeometry>
                </mxCell>
                <mxCell id="161" value="" style="shape=requiredInterface;html=1;verticalLabelPosition=bottom;sketch=0;rotation=-225;flipH=0;flipV=0;fontColor=#000000;" vertex="1" parent="160">
                    <mxGeometry width="10" height="10" relative="1" as="geometry">
                        <mxPoint x="-3" y="-7" as="offset"/>
                    </mxGeometry>
                </mxCell>
                <mxCell id="162" value="" style="shape=link;html=1;endArrow=none;endFill=0;curved=1;entryX=0.5;entryY=0;entryDx=0;entryDy=0;strokeColor=#FFFFFF;fontColor=#000000;strokeWidth=1;width=2;fillColor=#f9f7ed;exitX=0.5;exitY=1;exitDx=0;exitDy=0;" edge="1" parent="1" source="143">
                    <mxGeometry width="100" relative="1" as="geometry">
                        <mxPoint x="900.33" y="614" as="sourcePoint"/>
                        <mxPoint x="900.33" y="644" as="targetPoint"/>
                    </mxGeometry>
                </mxCell>
                <mxCell id="164" value="Stilling" style="text;html=1;align=center;verticalAlign=middle;resizable=0;points=[];autosize=1;strokeColor=none;fillColor=none;fontColor=#ffffff;" vertex="1" parent="1">
                    <mxGeometry x="795.5" y="766.25" width="70" height="28" as="geometry"/>
                </mxCell>
                <mxCell id="165" value="" style="edgeStyle=segmentEdgeStyle;endArrow=none;html=1;curved=0;rounded=0;endSize=8;startSize=8;endFill=0;strokeColor=#FFFFFF;fontColor=#ffffff;entryX=0.999;entryY=0.906;entryDx=0;entryDy=0;entryPerimeter=0;" edge="1" parent="1" target="159">
                    <mxGeometry width="50" height="50" relative="1" as="geometry">
                        <mxPoint x="770.5" y="766.25" as="sourcePoint"/>
                        <mxPoint x="850.49" y="766.25" as="targetPoint"/>
                        <Array as="points">
                            <mxPoint x="769.5" y="766.25"/>
                        </Array>
                    </mxGeometry>
                </mxCell>
                <mxCell id="168" value="Status" style="text;html=1;align=center;verticalAlign=middle;resizable=0;points=[];autosize=1;strokeColor=none;fillColor=none;fontColor=#ffffff;" vertex="1" parent="1">
                    <mxGeometry x="865" y="562.5" width="70" height="28" as="geometry"/>
                </mxCell>
                <mxCell id="169" value="" style="rounded=0;whiteSpace=wrap;html=1;fontSize=14;strokeColor=default;strokeWidth=1;fontColor=#ffffff;" vertex="1" parent="1">
                    <mxGeometry x="1260" y="296" width="120" height="57" as="geometry"/>
                </mxCell>
                <mxCell id="170" value="" style="rounded=0;whiteSpace=wrap;html=1;fontSize=14;strokeColor=default;strokeWidth=1;fontColor=#ffffff;" vertex="1" parent="1">
                    <mxGeometry x="1265" y="301" width="110" height="47" as="geometry"/>
                </mxCell>
                <mxCell id="171" value="&lt;span style=&quot;font-size: 14px;&quot;&gt;&lt;b&gt;Rolle&lt;/b&gt;&lt;/span&gt;" style="text;strokeColor=none;align=center;fillColor=none;html=1;verticalAlign=middle;whiteSpace=wrap;rounded=0;strokeWidth=1;fontColor=#ffffff;" vertex="1" parent="1">
                    <mxGeometry x="1265" y="301" width="110" height="25" as="geometry"/>
                </mxCell>
                <mxCell id="172" value="&lt;span style=&quot;font-size: 14px;&quot;&gt;Navn&lt;/span&gt;" style="text;strokeColor=none;align=center;fillColor=none;html=1;verticalAlign=middle;whiteSpace=wrap;rounded=0;strokeWidth=1;labelPosition=center;verticalLabelPosition=middle;fontColor=#ffffff;" vertex="1" parent="1">
                    <mxGeometry x="1265" y="326" width="110" height="20" as="geometry"/>
                </mxCell>
                <mxCell id="173" style="edgeStyle=none;html=1;exitX=0;exitY=0;exitDx=0;exitDy=0;entryX=1;entryY=0;entryDx=0;entryDy=0;endArrow=none;endFill=0;strokeColor=#FFFFFF;fontColor=#ffffff;" edge="1" source="172" target="172" parent="1">
                    <mxGeometry relative="1" as="geometry"/>
                </mxCell>
                <mxCell id="174" value="" style="edgeStyle=segmentEdgeStyle;endArrow=none;html=1;curved=0;rounded=0;endSize=8;startSize=8;endFill=0;strokeColor=#FFFFFF;fontColor=#ffffff;entryX=0.568;entryY=1.047;entryDx=0;entryDy=0;entryPerimeter=0;exitX=1;exitY=0.5;exitDx=0;exitDy=0;" edge="1" parent="1" source="157" target="169">
                    <mxGeometry width="50" height="50" relative="1" as="geometry">
                        <mxPoint x="1274" y="728.2898550724638" as="sourcePoint"/>
                        <mxPoint x="1328.0000000000002" y="385" as="targetPoint"/>
                        <Array as="points">
                            <mxPoint x="1288" y="759"/>
                            <mxPoint x="1330" y="759"/>
                            <mxPoint x="1330" y="356"/>
                        </Array>
                    </mxGeometry>
                </mxCell>
                <mxCell id="177" value="" style="rhombus;whiteSpace=wrap;html=1;fontSize=14;strokeColor=default;" vertex="1" parent="1">
                    <mxGeometry x="945.0000000000001" y="910" width="40" height="40" as="geometry"/>
                </mxCell>
                <mxCell id="178" value="&lt;b&gt;RolleIAkt&lt;/b&gt;" style="text;strokeColor=none;align=center;fillColor=none;html=1;verticalAlign=middle;whiteSpace=wrap;rounded=0;fontSize=14;" vertex="1" parent="1">
                    <mxGeometry x="935" y="890" width="60" height="20" as="geometry"/>
                </mxCell>
                <mxCell id="180" value="" style="rhombus;whiteSpace=wrap;html=1;fontSize=14;strokeColor=default;fontColor=#ffffff;" vertex="1" parent="1">
                    <mxGeometry x="1312" y="738.75" width="40" height="40" as="geometry"/>
                </mxCell>
                <mxCell id="181" value="&lt;b&gt;SpillerRolle&lt;br&gt;&lt;br&gt;&lt;/b&gt;" style="text;strokeColor=none;align=center;fillColor=none;html=1;verticalAlign=middle;whiteSpace=wrap;rounded=0;fontSize=14;fontColor=#ffffff;" vertex="1" parent="1">
                    <mxGeometry x="1302" y="778.75" width="60" height="20" as="geometry"/>
                </mxCell>
                <mxCell id="182" value="" style="rhombus;whiteSpace=wrap;html=1;fontSize=14;strokeColor=default;fontColor=#ffffff;" vertex="1" parent="1">
                    <mxGeometry x="1317" y="743.75" width="30" height="30" as="geometry"/>
                </mxCell>
                <mxCell id="183" value="" style="edgeStyle=segmentEdgeStyle;endArrow=none;html=1;curved=0;rounded=0;endSize=8;startSize=8;endFill=0;strokeColor=#FFFFFF;fontColor=#ffffff;exitX=1;exitY=0.5;exitDx=0;exitDy=0;" edge="1" parent="1" source="129">
                    <mxGeometry width="50" height="50" relative="1" as="geometry">
                        <mxPoint x="1134" y="154" as="sourcePoint"/>
                        <mxPoint x="1330" y="294" as="targetPoint"/>
                        <Array as="points">
                            <mxPoint x="960" y="140"/>
                            <mxPoint x="1330" y="140"/>
                        </Array>
                    </mxGeometry>
                </mxCell>
                <mxCell id="185" value="" style="edgeStyle=segmentEdgeStyle;endArrow=none;html=1;curved=0;rounded=0;endSize=8;startSize=8;endFill=0;strokeColor=#FFFFFF;fontColor=#ffffff;exitX=0.5;exitY=1;exitDx=0;exitDy=0;" edge="1" parent="1" source="129">
                    <mxGeometry width="50" height="50" relative="1" as="geometry">
                        <mxPoint x="880.5" y="210" as="sourcePoint"/>
                        <mxPoint x="900" y="252" as="targetPoint"/>
                        <Array as="points">
                            <mxPoint x="900" y="247"/>
                        </Array>
                    </mxGeometry>
                </mxCell>
                <mxCell id="186" value="" style="rhombus;whiteSpace=wrap;html=1;fontSize=14;strokeColor=default;fontColor=#ffffff;" vertex="1" parent="1">
                    <mxGeometry x="880.5000000000001" y="193" width="40" height="40" as="geometry"/>
                </mxCell>
                <mxCell id="187" value="&lt;b&gt;AktIStykke&lt;/b&gt;" style="text;strokeColor=none;align=center;fillColor=none;html=1;verticalAlign=middle;whiteSpace=wrap;rounded=0;fontSize=14;fontColor=#ffffff;" vertex="1" parent="1">
                    <mxGeometry x="940.5" y="203" width="60" height="20" as="geometry"/>
                </mxCell>
                <mxCell id="188" value="" style="rhombus;whiteSpace=wrap;html=1;fontSize=14;strokeColor=default;fontColor=#ffffff;" vertex="1" parent="1">
                    <mxGeometry x="885.5" y="198" width="30" height="30" as="geometry"/>
                </mxCell>
                <mxCell id="189" value="" style="edgeStyle=segmentEdgeStyle;endArrow=none;html=1;curved=0;rounded=0;endSize=8;startSize=8;endFill=0;strokeColor=#FFFFFF;fontColor=#ffffff;exitX=0.5;exitY=1;exitDx=0;exitDy=0;entryX=0.5;entryY=0;entryDx=0;entryDy=0;" edge="1" parent="1" source="60" target="144">
                    <mxGeometry width="50" height="50" relative="1" as="geometry">
                        <mxPoint x="879.99" y="430" as="sourcePoint"/>
                        <mxPoint x="919.99" y="430" as="targetPoint"/>
                        <Array as="points"/>
                    </mxGeometry>
                </mxCell>
                <mxCell id="190" value="" style="rhombus;whiteSpace=wrap;html=1;fontSize=14;strokeColor=default;fontColor=#ffffff;" vertex="1" parent="1">
                    <mxGeometry x="880.5000000000001" y="406" width="40" height="40" as="geometry"/>
                </mxCell>
                <mxCell id="191" value="&lt;b&gt;AnsattIStykke&lt;/b&gt;" style="text;strokeColor=none;align=left;fillColor=none;html=1;verticalAlign=middle;whiteSpace=wrap;rounded=0;fontSize=14;fontColor=#ffffff;" vertex="1" parent="1">
                    <mxGeometry x="925.5" y="416" width="60" height="20" as="geometry"/>
                </mxCell>
                <mxCell id="192" value="" style="rhombus;whiteSpace=wrap;html=1;fontSize=14;strokeColor=default;fontColor=#ffffff;" vertex="1" parent="1">
                    <mxGeometry x="1312" y="126" width="40" height="40" as="geometry"/>
                </mxCell>
                <mxCell id="193" value="&lt;b&gt;DeltarIAkt&lt;/b&gt;" style="text;strokeColor=none;align=center;fillColor=none;html=1;verticalAlign=middle;whiteSpace=wrap;rounded=0;fontSize=14;fontColor=#ffffff;" vertex="1" parent="1">
                    <mxGeometry x="1362" y="136" width="60" height="20" as="geometry"/>
                </mxCell>
                <mxCell id="194" value="" style="rhombus;whiteSpace=wrap;html=1;fontSize=14;strokeColor=default;fontColor=#ffffff;" vertex="1" parent="1">
                    <mxGeometry x="1317" y="131" width="30" height="30" as="geometry"/>
                </mxCell>
            </root>
        </mxGraphModel>
    </diagram>
</mxfile>